HIERARCHY
ROOT SpineBase
{
  OFFSET 0.000000 0.000000 0.000000
  CHANNELS 6 Xposition Yposition Zposition Zrotation Xrotation Yrotation
  JOINT SpineMid
  {
    OFFSET 0.000000 32.462908 0.000000
    CHANNELS 3 Zrotation Xrotation Yrotation
    JOINT SpineShoulder
    {
      OFFSET 0.199107 24.083960 -0.748487
      CHANNELS 3 Zrotation Xrotation Yrotation
      JOINT Neck
      {
        OFFSET 0.148644 7.960639 -0.574801
        CHANNELS 3 Zrotation Xrotation Yrotation
        JOINT Head
        {
          OFFSET -6.208531 13.861143 -0.575616
          CHANNELS 3 Zrotation Xrotation Yrotation
          End Site
          {
            OFFSET 0 0 0
          }
        }
      }
      JOINT ShoulderLeft
      {
        OFFSET -17.554042 -6.834474 5.333072
        CHANNELS 3 Zrotation Xrotation Yrotation
        JOINT ElbowLeft
        {
          OFFSET -1.059689 -28.879328 2.292903
          CHANNELS 3 Zrotation Xrotation Yrotation
          JOINT WristLeft
          {
            OFFSET 1.491584 -22.959657 -4.174647
            CHANNELS 3 Zrotation Xrotation Yrotation
            JOINT HandLeft
            {
              OFFSET 0.182030 -3.540969 -1.418134
              CHANNELS 3 Zrotation Xrotation Yrotation
              JOINT HandTipLeft
              {
                OFFSET 2.351315 -6.636708 -3.488776
                CHANNELS 3 Zrotation Xrotation Yrotation
                End Site
                {
                  OFFSET 0 0 0
                }
              }
              JOINT ThumbLeft
              {
                OFFSET -1.308025 -3.507756 -2.583199
                CHANNELS 3 Zrotation Xrotation Yrotation
                End Site
                {
                  OFFSET 0 0 0
                }
              }
            }
          }
        }
      }
      JOINT ShoulderRight
      {
        OFFSET 15.715773 -3.077059 -7.678635
        CHANNELS 3 Zrotation Xrotation Yrotation
        JOINT ElbowRight
        {
          OFFSET 7.605558 -26.760740 -1.104285
          CHANNELS 3 Zrotation Xrotation Yrotation
          JOINT WristRight
          {
            OFFSET 0.073585 -22.708621 -5.975952
            CHANNELS 3 Zrotation Xrotation Yrotation
            JOINT HandRight
            {
              OFFSET -1.358902 -7.584852 -0.989853
              CHANNELS 3 Zrotation Xrotation Yrotation
              JOINT HandTipRight
              {
                OFFSET -0.429295 -5.720231 -1.273487
                CHANNELS 3 Zrotation Xrotation Yrotation
                End Site
                {
                  OFFSET 0 0 0
                }
              }
              JOINT ThumbRight
              {
                OFFSET -2.386478 0.911480 -1.993184
                CHANNELS 3 Zrotation Xrotation Yrotation
                End Site
                {
                  OFFSET 0 0 0
                }
              }
            }
          }
        }
      }
    }
  }
  JOINT HipLeft
  {
    OFFSET -6.187159 -0.044960 -1.546682
    CHANNELS 3 Zrotation Xrotation Yrotation
    JOINT KneeLeft
    {
      OFFSET 4.092944 -34.414671 4.145945
      CHANNELS 3 Zrotation Xrotation Yrotation
      JOINT AnkleLeft
      {
        OFFSET 5.114997 -37.134420 7.429025
        CHANNELS 3 Zrotation Xrotation Yrotation
        JOINT FootLeft
        {
          OFFSET -2.114777 -8.035671 -5.795924
          CHANNELS 3 Zrotation Xrotation Yrotation
          End Site
          {
            OFFSET 0 0 0
          }
        }
      }
    }
  }
  JOINT HipRight
  {
    OFFSET 7.951588 1.837664 -5.678296
    CHANNELS 3 Zrotation Xrotation Yrotation
    JOINT KneeRight
    {
      OFFSET 10.168110 -34.605637 1.112228
      CHANNELS 3 Zrotation Xrotation Yrotation
      JOINT AnkleRight
      {
        OFFSET 3.396938 -36.638564 6.478987
        CHANNELS 3 Zrotation Xrotation Yrotation
        JOINT FootRight
        {
          OFFSET -1.999598 -8.311994 -4.788267
          CHANNELS 3 Zrotation Xrotation Yrotation
          End Site
          {
            OFFSET 0 0 0
          }
        }
      }
    }
  }
}
MOTION
Frames: 9
Frame Time: 0.033333
-82.482271 80.906622 338.139553 -0.000000 0.000000 16.289381 -0.000000 -0.000000 -16.289381 -0.000000 0.000000 0.000000 -0.000000 0.000000 0.000000 0.000000 0.000000 0.000000 -0.000000 0.000000 0.000000 -0.000000 0.000000 0.000000 -0.000000 0.000000 0.000000 -0.000000 0.000000 0.000000 0.000000 0.000000 0.000000 0.000000 0.000000 0.000000 -0.000000 0.000000 0.000000 -0.000000 0.000000 0.000000 -0.000000 0.000000 0.000000 -0.000000 0.000000 0.000000 0.000000 0.000000 0.000000 0.000000 0.000000 0.000000 -0.000000 -0.000000 -16.289381 -0.000000 0.000000 0.000000 -0.000000 0.000000 0.000000 0.000000 0.000000 0.000000 -0.000000 -0.000000 -16.289381 -0.000000 0.000000 0.000000 -0.000000 0.000000 0.000000 0.000000 0.000000 0.000000
-82.483606 80.917654 338.167886 -0.008346 0.031249 16.318751 -0.000771 -0.032335 -16.318749 -0.000000 0.000000 0.000000 -0.000000 0.000000 0.000000 0.000000 0.000000 0.000000 -0.000000 0.000000 0.000000 -0.000000 0.000000 0.000000 -0.000000 0.000000 0.000000 -1.175735 0.036435 0.633554 0.000000 0.000000 0.000000 0.000000 0.000000 0.000000 -0.000000 0.000000 0.000000 -0.000000 0.000000 0.000000 -0.000000 0.000000 0.000000 0.490938 -1.210387 -0.013306 0.000000 0.000000 0.000000 0.000000 0.000000 0.000000 -0.000771 -0.032335 -16.318749 -0.000000 0.000000 0.000000 5.199924 4.044274 -4.931912 0.000000 0.000000 0.000000 -0.000771 -0.032335 -16.318749 -0.000000 0.000000 0.000000 -0.000000 0.000000 0.000000 0.000000 0.000000 0.000000
-82.477209 80.927673 338.189048 -0.010755 0.064674 16.353975 -0.007890 -0.065086 -16.353974 -0.000000 0.000000 0.000000 -0.000000 0.000000 0.000000 0.000000 0.000000 0.000000 -0.000000 0.000000 0.000000 -0.000000 0.000000 0.000000 -0.000000 0.000000 0.000000 -2.265817 -0.054326 1.179442 0.000000 0.000000 0.000000 0.000000 0.000000 0.000000 -0.000000 0.000000 0.000000 -0.000000 0.000000 0.000000 -0.498090 -1.079225 0.253785 1.459964 -1.102860 -0.315288 0.000000 0.000000 0.000000 0.000000 0.000000 0.000000 -0.007890 -0.065086 -16.353974 -0.000000 0.000000 0.000000 9.391511 6.664204 -8.893423 0.000000 0.000000 0.000000 -0.007890 -0.065086 -16.353974 -0.000000 0.000000 0.000000 -0.106049 1.014112 -0.180976 0.000000 0.000000 0.000000
-82.463079 80.936678 338.203040 -0.007226 0.100274 16.395010 -0.021371 -0.098236 -16.395022 -0.000000 0.000000 0.000000 -0.000000 0.000000 0.000000 0.000000 0.000000 0.000000 -0.000000 0.000000 0.000000 -0.000000 0.000000 0.000000 -0.000000 0.000000 0.000000 -3.244999 -0.275496 1.619061 0.000000 0.000000 0.000000 0.000000 0.000000 0.000000 -0.000000 0.000000 0.000000 -0.000000 0.000000 0.000000 -0.642941 -1.454054 0.336489 2.065148 -1.470969 -0.453483 0.000000 0.000000 0.000000 0.000000 0.000000 0.000000 -0.021371 -0.098236 -16.395022 -0.000000 0.000000 0.000000 12.484812 8.181952 -11.782902 0.000000 0.000000 0.000000 -0.021371 -0.098236 -16.395022 -0.000000 0.000000 0.000000 0.148321 1.513865 -0.448336 0.000000 0.000000 0.000000
-82.441215 80.944670 338.209861 0.002244 0.138046 16.441796 -0.041225 -0.131766 -16.441846 -0.000000 0.000000 0.000000 -0.000000 0.000000 0.000000 0.000000 0.000000 0.000000 -0.000000 0.000000 0.000000 -0.000000 0.000000 0.000000 -0.000000 0.000000 0.000000 -4.090515 -0.626763 1.936660 0.000000 0.000000 0.000000 0.000000 0.000000 0.000000 -0.000000 0.000000 0.000000 -0.000000 0.000000 0.000000 -0.714460 -1.710665 0.389402 2.588858 -1.743381 -0.574007 0.000000 0.000000 0.000000 0.000000 0.000000 0.000000 -0.041225 -0.131766 -16.441846 -0.000000 0.000000 0.000000 14.510173 8.865632 -13.619717 0.000000 0.000000 0.000000 -0.041225 -0.131766 -16.441846 -0.000000 0.000000 0.000000 0.606092 2.007185 -0.835302 0.000000 0.000000 0.000000
-82.411619 80.951648 338.209511 0.017655 0.177988 16.494262 -0.067463 -0.165651 -16.494387 -0.000000 0.000000 0.000000 -0.000000 0.000000 0.000000 0.000000 0.000000 0.000000 -0.000000 0.000000 0.000000 0.421998 0.759082 -0.030167 -0.247609 0.060963 -0.001958 -4.958726 -1.924001 2.078302 0.000000 0.000000 0.000000 0.000000 0.000000 0.000000 -0.000000 0.000000 0.000000 -0.000000 0.000000 0.000000 -0.709847 -1.843389 0.411915 3.032095 -1.935902 -0.673751 0.000000 0.000000 0.000000 0.000000 0.000000 0.000000 -0.067463 -0.165651 -16.494387 -0.000000 0.000000 0.000000 15.528258 8.881272 -14.454850 0.000000 0.000000 0.000000 -0.067463 -0.165651 -16.494387 -0.000000 0.000000 0.000000 1.266697 2.491120 -1.343337 0.000000 0.000000 0.000000
-82.382829 80.958718 338.199420 0.023738 0.215358 16.562794 -0.084145 -0.199655 -16.562985 -0.000000 0.000000 0.000000 -0.406808 0.716258 0.307039 0.000000 0.000000 0.000000 -0.000000 0.000000 0.000000 0.503449 0.822405 -0.041658 0.523104 0.891505 -0.287384 -7.561303 -4.719455 2.405720 0.000000 0.000000 0.000000 0.000000 0.000000 0.000000 -0.000000 0.000000 0.000000 -0.000000 0.000000 0.000000 -0.201038 -2.887644 0.540232 3.543100 -1.745580 -0.992215 0.000000 0.000000 0.000000 0.000000 0.000000 0.000000 -0.084145 -0.199655 -16.562985 -0.000000 0.000000 0.000000 15.727796 6.087133 -13.766560 0.000000 0.000000 0.000000 -0.084145 -0.199655 -16.562985 -0.000000 0.000000 0.000000 2.716468 3.012884 -2.339160 0.000000 0.000000 0.000000
-82.326707 80.967249 338.174309 0.062084 0.266666 16.645710 -0.135871 -0.237707 -16.646136 -0.000000 0.000000 0.000000 -0.434445 0.770142 0.330490 0.000000 0.000000 0.000000 -0.740689 -0.355114 -0.048050 1.163316 1.107179 0.009910 1.266202 1.344465 -0.548085 -7.360223 -4.512758 2.427299 0.000000 0.000000 0.000000 0.000000 0.000000 0.000000 -0.732715 0.357141 0.134248 1.307085 -0.952122 -0.276922 -0.050213 -2.810068 0.711616 3.200586 -1.816199 -1.030592 0.000000 0.000000 0.000000 0.000000 0.000000 0.000000 -0.135871 -0.237707 -16.646136 -0.000000 0.000000 0.000000 14.235662 5.343739 -12.338324 0.000000 0.000000 0.000000 -0.135871 -0.237707 -16.646136 -0.000000 0.000000 0.000000 3.099036 2.838685 -2.525504 0.000000 0.000000 0.000000
-82.264669 80.969675 338.150220 0.114402 0.323297 16.744495 -0.202696 -0.276628 -16.745307 -0.000000 0.000000 0.000000 -0.448762 0.784336 0.336437 0.000000 0.000000 0.000000 -0.000000 0.000000 0.000000 0.384524 0.833075 -0.018561 1.749421 1.345126 -0.733171 -7.715205 -5.620058 2.140511 0.000000 0.000000 0.000000 0.000000 0.000000 0.000000 -0.824227 0.255513 0.108681 2.257898 -2.152675 -0.460808 -0.062214 -1.591737 0.855578 3.156709 -2.674014 -1.000860 0.000000 0.000000 0.000000 0.000000 0.000000 0.000000 -0.202696 -0.276628 -16.745307 -0.000000 0.000000 0.000000 11.461205 4.656015 -9.933904 0.000000 0.000000 0.000000 -0.202696 -0.276628 -16.745307 -0.000000 0.000000 0.000000 3.131495 2.632246 -2.492713 0.000000 0.000000 0.000000
